<svg width="178" height="110" viewBox="0 0 178 110" fill="none" xmlns="http://www.w3.org/2000/svg">
<rect width="178" height="110" fill="#40375D"/>
<path d="M144.367 48.2218C126.286 45.2772 66.6923 47.9764 63.8347 49.4487C62.5358 52.6386 62.5358 58.0369 63.8347 61.4722C68.251 65.1529 136.833 64.4167 144.367 61.9629C145.492 59.9181 147.068 54.3071 144.367 48.2218Z" fill="#975CDA"/>
<path fill-rule="evenodd" clip-rule="evenodd" d="M22 55.8443C22 55.8443 50.6819 68.5183 56.7966 68.5183C62.9112 68.5183 67.8682 62.844 67.8682 55.8443C67.8682 48.8445 62.9112 43.1702 56.7966 43.1702C50.6819 43.1702 22 55.8443 22 55.8443ZM47.3482 55.8443C47.3482 59.1774 50.0502 61.8795 53.3835 61.8795C56.7167 61.8795 59.4188 59.1774 59.4188 55.8443C59.4188 52.5111 56.7167 49.809 53.3835 49.809C50.0502 49.809 47.3482 52.5111 47.3482 55.8443Z" fill="#420A83"/>
<path fill-rule="evenodd" clip-rule="evenodd" d="M62.4579 94.0294C62.393 94.9311 63.0713 95.7147 63.973 95.7796C68.2463 96.0873 71.859 94.1988 74.8546 91.0631C77.8199 87.959 80.2746 83.5475 82.3558 78.5052C86.5214 68.4126 89.3893 55.2847 91.6818 43.6027C92.1374 41.2813 92.5693 39.0221 92.9842 36.8515C93.6202 33.524 94.2165 30.4045 94.7976 27.5876C95.7622 22.9119 96.6502 19.2527 97.5409 17.0166C97.8313 16.2875 98.0816 15.8186 98.2697 15.5347C98.5349 15.8897 98.9055 16.5324 99.3543 17.6124C99.9496 19.0449 100.605 21.0493 101.327 23.7215C103.818 32.9386 105.55 41.6922 107.087 49.457C107.342 50.7474 107.592 52.0105 107.839 53.2438C109.554 61.8065 111.161 69.112 113.575 73.9232C114.791 76.3493 116.305 78.3356 118.32 79.487C120.398 80.6741 122.781 80.8454 125.428 80.0775C128.023 79.3248 130.924 77.6595 134.221 75.1036C137.532 72.5366 141.329 69.0026 145.714 64.4111C146.338 63.7574 146.315 62.7212 145.661 62.0968C145.007 61.4724 143.971 61.4962 143.347 62.1499C139.022 66.6781 135.35 70.0861 132.215 72.5164C129.066 74.9579 126.543 76.3453 124.516 76.9334C122.541 77.5065 121.104 77.3069 119.944 76.6443C118.722 75.946 117.578 74.6038 116.501 72.4555C114.325 68.1178 112.79 61.2908 111.049 52.6008C110.804 51.3788 110.556 50.1234 110.301 48.8375C108.766 41.0756 107.01 32.202 104.488 22.8674C103.748 20.1321 103.05 17.975 102.377 16.3562C101.731 14.8018 101.021 13.5177 100.152 12.7664C99.6846 12.3628 99.0626 12.0191 98.3048 12.0008C97.5363 11.9821 96.9039 12.3044 96.4383 12.6938C95.5928 13.4008 94.9847 14.5873 94.4995 15.8052C93.4866 18.3481 92.5496 22.2813 91.5914 26.9262C91.0069 29.7597 90.4016 32.926 89.7609 36.2774C89.3465 38.4448 88.9174 40.6898 88.4694 42.9723C86.173 54.6739 83.3557 67.5019 79.3297 77.2562C77.3151 82.1373 75.0474 86.122 72.4874 88.8017C69.9577 91.4498 67.2421 92.7328 64.2081 92.5143C63.3064 92.4494 62.5228 93.1277 62.4579 94.0294Z" fill="url(#paint0_linear)"/>
<path d="M122.156 47.1742C114.365 46.7065 98.9322 47.1742 94.0216 47.6419C93.5678 50.7797 93.5678 59.462 94.0216 62.8412C99.166 63.5427 112.261 64.2442 122.156 63.324C122.549 61.3125 123.1 53.1603 122.156 47.1742Z" fill="#975CDA"/>
<circle cx="144.998" cy="63.7765" r="5.1444" transform="rotate(-90 144.998 63.7765)" fill="#54139E"/>
<path fill-rule="evenodd" clip-rule="evenodd" d="M62.4579 16.5888C62.393 15.6871 63.0713 14.9035 63.973 14.8386C68.2463 14.5309 71.859 16.4193 74.8546 19.5551C77.8199 22.6591 80.2746 27.0707 82.3558 32.113C86.5214 42.2056 89.3893 55.3335 91.6818 67.0155C92.1374 69.3369 92.5693 71.596 92.9842 73.7667C93.6202 77.0942 94.2165 80.2136 94.7976 83.0306C95.7622 87.7063 96.6502 91.3654 97.5409 93.6016C97.8313 94.3306 98.0816 94.7995 98.2697 95.0835C98.5349 94.7285 98.9055 94.0857 99.3543 93.0057C99.9496 91.5733 100.605 89.5688 101.327 86.8966C103.818 77.6796 105.55 68.926 107.087 61.1612C107.342 59.8708 107.592 58.6077 107.839 57.3743C109.554 48.8116 111.161 41.5061 113.575 36.6949C114.791 34.2689 116.305 32.2826 118.32 31.1312C120.398 29.9441 122.781 29.7728 125.428 30.5406C128.023 31.2934 130.924 32.9587 134.221 35.5145C137.532 38.0816 141.329 41.6156 145.714 46.2071C146.338 46.8608 146.315 47.8969 145.661 48.5213C145.007 49.1457 143.971 49.1219 143.347 48.4682C139.022 43.9401 135.35 40.532 132.215 38.1018C129.066 35.6603 126.543 34.2729 124.516 33.6847C122.541 33.1117 121.104 33.3113 119.944 33.9738C118.722 34.6721 117.578 36.0143 116.501 38.1627C114.325 42.5003 112.79 49.3274 111.049 58.0174C110.804 59.2393 110.556 60.4948 110.301 61.7807C108.766 69.5426 107.01 78.4161 104.488 87.7508C103.748 90.486 103.05 92.6431 102.377 94.262C101.731 95.8164 101.021 97.1005 100.152 97.8518C99.6846 98.2553 99.0626 98.599 98.3048 98.6174C97.5363 98.636 96.9039 98.3138 96.4383 97.9244C95.5928 97.2174 94.9847 96.0309 94.4995 94.813C93.4866 92.2701 92.5496 88.3368 91.5914 83.692C91.0069 80.8584 90.4016 77.6922 89.7609 74.3408C89.3465 72.1733 88.9173 69.9284 88.4694 67.6459C86.173 55.9442 83.3557 43.1162 79.3297 33.362C77.3151 28.4809 75.0474 24.4962 72.4874 21.8164C69.9577 19.1684 67.2421 17.8854 64.2081 18.1038C63.3064 18.1688 62.5228 17.4904 62.4579 16.5888Z" fill="url(#paint1_linear)"/>
<path d="M103.899 47.5118C96.5335 47.0361 81.8281 47.6338 77.1855 48.1095C76.7565 51.3008 76.6106 59.8689 77.0396 63.3057C81.9033 64.0192 94.2835 64.7326 103.638 63.7967C104.01 61.751 104.791 53.5998 103.899 47.5118Z" fill="#975CDA"/>
<circle cx="144.998" cy="48.8109" r="5.1444" transform="rotate(-90 144.998 48.8109)" fill="#54139E"/>
<defs>
<linearGradient id="paint0_linear" x1="62.4536" y1="53.9061" x2="146.167" y2="53.9061" gradientUnits="userSpaceOnUse">
<stop stop-color="#01B0E4"/>
<stop offset="1" stop-color="#420A83"/>
</linearGradient>
<linearGradient id="paint1_linear" x1="62.4536" y1="56.712" x2="146.167" y2="56.712" gradientUnits="userSpaceOnUse">
<stop stop-color="#03ADE2"/>
<stop offset="1" stop-color="#420A83"/>
</linearGradient>
</defs>
</svg>
