<svg width="178" height="110" viewBox="0 0 178 110" fill="none" xmlns="http://www.w3.org/2000/svg">
<rect width="178" height="110" fill="#40375D"/>
<path d="M154.143 47.2665C133.584 43.9183 65.8198 46.9875 62.5704 48.6617C61.0934 52.2889 61.0934 58.4273 62.5704 62.3336C67.5922 66.5189 145.577 65.6819 154.143 62.8917C155.423 60.5665 157.216 54.1862 154.143 47.2665Z" fill="#147EB1"/>
<path fill-rule="evenodd" clip-rule="evenodd" d="M15 55.934C15 55.934 47.6142 70.3457 54.5672 70.3457C61.5201 70.3457 67.1567 63.8933 67.1567 55.934C67.1567 47.9746 61.5201 41.5222 54.5672 41.5222C47.6142 41.5222 15 55.934 15 55.934ZM43.8234 55.934C43.8234 59.7241 46.8959 62.7967 50.6862 62.7967C54.4764 62.7967 57.5489 59.7241 57.5489 55.934C57.5489 52.1438 54.4764 49.0712 50.6862 49.0712C46.8959 49.0712 43.8234 52.1438 43.8234 55.934Z" fill="#24D8E8"/>
<rect x="140.503" y="63.5032" width="9.57226" height="9.57226" transform="rotate(-45 140.503 63.5032)" fill="#24D8E8"/>
<rect x="140.503" y="47.0176" width="9.57226" height="9.57226" transform="rotate(-45 140.503 47.0176)" fill="#24D8E8"/>
<rect x="128.803" y="55.5264" width="9.57226" height="9.57226" transform="rotate(-45 128.803 55.5264)" fill="#24D8E8"/>
</svg>
