<svg width="178" height="110" viewBox="0 0 178 110" fill="none" xmlns="http://www.w3.org/2000/svg">
<rect width="178" height="110" fill="#40375D"/>
<path d="M140.367 48.2218C122.286 45.2772 62.6923 47.9764 59.8347 49.4487C58.5358 52.6386 58.5358 58.0369 59.8347 61.4722C64.251 65.1529 132.833 64.4167 140.367 61.9629C141.492 59.9181 143.068 54.3071 140.367 48.2218Z" fill="#E09B6B"/>
<path fill-rule="evenodd" clip-rule="evenodd" d="M18 55.8443C18 55.8443 46.6819 68.5183 52.7966 68.5183C58.9112 68.5183 63.8682 62.844 63.8682 55.8443C63.8682 48.8445 58.9112 43.1702 52.7966 43.1702C46.6819 43.1702 18 55.8443 18 55.8443ZM43.3482 55.8443C43.3482 59.1774 46.0502 61.8795 49.3835 61.8795C52.7167 61.8795 55.4188 59.1774 55.4188 55.8443C55.4188 52.5111 52.7167 49.809 49.3835 49.809C46.0502 49.809 43.3482 52.5111 43.3482 55.8443Z" fill="#B41642"/>
<path fill-rule="evenodd" clip-rule="evenodd" d="M58.4579 94.0294C58.393 94.9311 59.0713 95.7147 59.973 95.7796C64.2463 96.0873 67.859 94.1988 70.8546 91.0631C73.8199 87.959 76.2746 83.5475 78.3558 78.5052C82.5214 68.4126 85.3893 55.2847 87.6818 43.6027C88.1374 41.2813 88.5693 39.0221 88.9842 36.8515C89.6202 33.524 90.2165 30.4045 90.7976 27.5876C91.7622 22.9119 92.6502 19.2527 93.5409 17.0166C93.8313 16.2875 94.0816 15.8186 94.2697 15.5347C94.5349 15.8897 94.9055 16.5324 95.3543 17.6124C95.9496 19.0449 96.605 21.0493 97.3273 23.7215C99.8184 32.9386 101.55 41.6922 103.087 49.457C103.342 50.7474 103.592 52.0105 103.839 53.2438C105.554 61.8065 107.161 69.112 109.575 73.9232C110.791 76.3493 112.305 78.3356 114.32 79.487C116.398 80.6741 118.781 80.8454 121.428 80.0775C124.023 79.3248 126.924 77.6595 130.221 75.1036C133.532 72.5366 137.329 69.0026 141.714 64.4111C142.338 63.7574 142.315 62.7212 141.661 62.0968C141.007 61.4724 139.971 61.4962 139.347 62.1499C135.022 66.6781 131.35 70.0861 128.215 72.5164C125.066 74.9579 122.543 76.3453 120.516 76.9334C118.541 77.5065 117.104 77.3069 115.944 76.6443C114.722 75.946 113.578 74.6038 112.501 72.4555C110.325 68.1178 108.79 61.2908 107.049 52.6008C106.804 51.3788 106.556 50.1234 106.301 48.8375C104.766 41.0756 103.01 32.202 100.488 22.8674C99.7483 20.1321 99.0501 17.975 98.3774 16.3562C97.7315 14.8018 97.0212 13.5177 96.1517 12.7664C95.6846 12.3628 95.0626 12.0191 94.3048 12.0008C93.5363 11.9821 92.9039 12.3044 92.4383 12.6938C91.5928 13.4008 90.9847 14.5873 90.4995 15.8052C89.4866 18.3481 88.5496 22.2813 87.5914 26.9262C87.0069 29.7597 86.4016 32.926 85.7609 36.2774C85.3465 38.4448 84.9174 40.6898 84.4694 42.9723C82.173 54.6739 79.3557 67.5019 75.3297 77.2562C73.3151 82.1373 71.0474 86.122 68.4874 88.8017C65.9577 91.4498 63.2421 92.7328 60.2081 92.5143C59.3064 92.4494 58.5228 93.1277 58.4579 94.0294Z" fill="url(#paint0_linear)"/>
<path d="M118.156 47.1742C110.365 46.7065 94.9322 47.1742 90.0216 47.6419C89.5678 50.7797 89.5678 59.462 90.0216 62.8412C95.166 63.5427 108.261 64.2442 118.156 63.324C118.549 61.3125 119.1 53.1603 118.156 47.1742Z" fill="#E09B6B"/>
<circle cx="140.998" cy="63.7765" r="5.1444" transform="rotate(-90 140.998 63.7765)" fill="#DA3260"/>
<path fill-rule="evenodd" clip-rule="evenodd" d="M58.4579 16.5888C58.393 15.6871 59.0713 14.9035 59.973 14.8386C64.2463 14.5309 67.859 16.4193 70.8546 19.5551C73.8199 22.6591 76.2746 27.0707 78.3558 32.113C82.5214 42.2056 85.3893 55.3335 87.6818 67.0155C88.1374 69.3369 88.5693 71.596 88.9842 73.7667C89.6202 77.0942 90.2165 80.2136 90.7976 83.0306C91.7622 87.7063 92.6502 91.3654 93.5409 93.6016C93.8313 94.3306 94.0816 94.7995 94.2697 95.0835C94.5349 94.7285 94.9055 94.0857 95.3543 93.0057C95.9496 91.5733 96.605 89.5688 97.3272 86.8966C99.8183 77.6796 101.55 68.926 103.087 61.1612C103.342 59.8708 103.592 58.6077 103.839 57.3743C105.554 48.8116 107.161 41.5061 109.575 36.6949C110.791 34.2689 112.305 32.2826 114.32 31.1312C116.398 29.9441 118.781 29.7728 121.428 30.5406C124.023 31.2934 126.924 32.9587 130.221 35.5145C133.532 38.0816 137.329 41.6156 141.714 46.2071C142.338 46.8608 142.315 47.8969 141.661 48.5213C141.007 49.1457 139.971 49.1219 139.347 48.4682C135.022 43.9401 131.35 40.532 128.215 38.1018C125.066 35.6603 122.543 34.2729 120.516 33.6847C118.541 33.1117 117.104 33.3113 115.944 33.9738C114.722 34.6721 113.578 36.0143 112.501 38.1627C110.325 42.5003 108.79 49.3274 107.049 58.0174C106.804 59.2393 106.556 60.4948 106.301 61.7807C104.766 69.5426 103.01 78.4161 100.488 87.7508C99.7483 90.486 99.0501 92.6431 98.3774 94.262C97.7315 95.8164 97.0212 97.1005 96.1517 97.8518C95.6846 98.2553 95.0626 98.599 94.3048 98.6174C93.5363 98.636 92.9039 98.3138 92.4383 97.9244C91.5928 97.2174 90.9847 96.0309 90.4995 94.813C89.4866 92.2701 88.5496 88.3368 87.5914 83.692C87.0069 80.8584 86.4016 77.6922 85.7609 74.3408C85.3465 72.1733 84.9173 69.9284 84.4694 67.6459C82.173 55.9442 79.3557 43.1162 75.3297 33.362C73.3151 28.4809 71.0474 24.4962 68.4874 21.8164C65.9577 19.1684 63.2421 17.8854 60.2081 18.1038C59.3064 18.1688 58.5228 17.4904 58.4579 16.5888Z" fill="url(#paint1_linear)"/>
<path d="M99.8988 47.5118C92.5335 47.0361 77.8281 47.6338 73.1855 48.1095C72.7565 51.3008 72.6106 59.8689 73.0396 63.3057C77.9033 64.0192 90.2835 64.7326 99.6384 63.7967C100.01 61.751 100.791 53.5998 99.8988 47.5118Z" fill="#E09B6B"/>
<circle cx="140.998" cy="48.8109" r="5.1444" transform="rotate(-90 140.998 48.8109)" fill="#DA3260"/>
<defs>
<linearGradient id="paint0_linear" x1="58.4536" y1="53.9061" x2="142.167" y2="53.9061" gradientUnits="userSpaceOnUse">
<stop stop-color="#EE2960"/>
<stop offset="1" stop-color="#850B2D"/>
</linearGradient>
<linearGradient id="paint1_linear" x1="58.4536" y1="56.712" x2="142.167" y2="56.712" gradientUnits="userSpaceOnUse">
<stop stop-color="#EE2960"/>
<stop offset="1" stop-color="#850B2D"/>
</linearGradient>
</defs>
</svg>
