<svg width="178" height="110" viewBox="0 0 178 110" fill="none" xmlns="http://www.w3.org/2000/svg">
<rect width="178" height="110" fill="#40375D"/>
<path d="M154.351 47.1836C134.795 43.9988 70.3391 46.9182 67.2484 48.5106C65.8435 51.9608 65.8435 57.7996 67.2484 61.5151C72.025 65.4961 146.203 64.6999 154.351 62.046C155.569 59.8343 157.273 53.7655 154.351 47.1836Z" fill="#B41642"/>
<path fill-rule="evenodd" clip-rule="evenodd" d="M22 55.4279C22 55.4279 53.0222 69.1361 59.6358 69.1361C66.2493 69.1361 71.6107 62.9988 71.6107 55.4279C71.6107 47.8571 66.2493 41.7197 59.6358 41.7197C53.0222 41.7197 22 55.4279 22 55.4279ZM49.4165 55.4279C49.4165 59.0331 52.339 61.9557 55.9442 61.9557C59.5494 61.9557 62.4719 59.0331 62.4719 55.4279C62.4719 51.8228 59.5494 48.9002 55.9442 48.9002C52.339 48.9002 49.4165 51.8228 49.4165 55.4279Z" fill="#E09B6B"/>
<path fill-rule="evenodd" clip-rule="evenodd" d="M52.8448 21.4142C52.8448 21.4142 42.1378 53.5956 42.7645 60.1795C43.3912 66.7632 50.009 71.519 57.5457 70.8016C65.0825 70.0842 70.6842 64.1653 70.0576 57.5816C69.4309 50.9978 52.8448 21.4142 52.8448 21.4142ZM55.4427 48.7072C51.8538 49.0488 49.2213 52.2351 49.5629 55.8241C49.9045 59.4131 53.0908 62.0455 56.6798 61.7039C60.2687 61.3623 62.9012 58.176 62.5596 54.587C62.218 50.998 59.0316 48.3656 55.4427 48.7072Z" fill="#E09B6B"/>
<path fill-rule="evenodd" clip-rule="evenodd" d="M53.3628 89.146C53.3628 89.146 69.6571 59.4007 70.219 52.811C70.7809 46.2214 65.1212 40.3579 57.5777 39.7147C50.0343 39.0715 43.4636 43.8921 42.9017 50.4817C42.3398 57.0714 53.3628 89.146 53.3628 89.146ZM55.6921 61.8287C59.2842 62.135 62.4445 59.4714 62.7508 55.8792C63.0571 52.287 60.3934 49.1267 56.8013 48.8205C53.2092 48.5142 50.0489 51.1778 49.7426 54.77C49.4363 58.3622 52.1 61.5224 55.6921 61.8287Z" fill="#E09B6B"/>
<circle cx="52.8558" cy="90.3107" r="2.52916" transform="rotate(-90 52.8558 90.3107)" fill="#B41642"/>
<circle cx="52.8558" cy="22.5292" r="2.52916" transform="rotate(-90 52.8558 22.5292)" fill="#B41642"/>
<path d="M83.7116 89.2991L55.385 89.9928L55.385 90.6865L83.7116 91.3224L83.7116 89.2991Z" fill="#E09B6B"/>
<path d="M83.7116 21.5176L55.385 22.2113L55.385 22.905L83.7116 23.5409L83.7116 21.5176Z" fill="#E09B6B"/>
</svg>
